<svg xmlns="http://www.w3.org/2000/svg" width="202" height="202" viewBox="0 0 202 202">
  <g id="Group_10" data-name="Group 10" transform="translate(-1060 304)">
    <circle id="Ellipse_1" data-name="Ellipse 1" cx="101" cy="101" r="101" transform="translate(1060 -304)" fill="#fff"/>
    <path id="Path_27" data-name="Path 27" d="M1537.739.533c5.288,9.322,10.8,19.025,16.875,29.742,4.515-8.5,8.655-15.684,12.2-23.157,2.39-5.038,5.491-7.411,11.25-7.091,8.21.453,16.474-.089,24.7.16,19.176.586,30.266,14.635,26.524,33.483q-3.973,20.034-8.219,40c-2.471,11.534-5.919,14.4-17.746,14.458q-32.576.173-65.153,0c-11.329-.062-14.547-2.6-16.982-13.711-2.993-13.667-5.713-27.4-8.36-41.134-3.688-19.158,4.417-30.151,24.908-32.745Z" transform="translate(-409.992 -247.104)"/>
  </g>
</svg>
